# xmcd
#
# Track frame offsets: 
#        150
#        12897
#        25326
#        34330
#        47578
#        59841
#        70071
#        78654
#        88117
#        99694
#        108400
#        118623
#        127448
#
# Disc length: 1833 seconds
#
# Revision: 0
# Processed by: cddbd v1.5.2PL0 Copyright (c) Steve Scherf et al.
# Submitted via: ExactAudioCopy v1.0b1
#
DISCID=bb07270d
DTITLE=Bob Wills - King of Western Swing
DYEAR=1967
DGENRE=Western Swing
TTITLE0=San Antonio Rose
TTITLE1=Looking Over My Shoulder
TTITLE2=Eight'r From Decatur
TTITLE3=Faded Love
TTITLE4=I Needed You
TTITLE5=Memphis
TTITLE6=Sugarfoot Rag
TTITLE7=Let's Be Sure We Know
TTITLE8=I Wish I Felt This Way At Home
TTITLE9=Big Beaver
TTITLE10=Somewhere South of San Antone
TTITLE11=Comanche Hit And Run
TTITLE12=If You'll Come Back To Me (Bonus Track)
EXTD=
EXTT0=
EXTT1=
EXTT2=
EXTT3=
EXTT4=
EXTT5=
EXTT6=
EXTT7=
EXTT8=
EXTT9=
EXTT10=
EXTT11=
EXTT12=
PLAYORDER=
